# Blender v2.79 (sub 0) OBJ File: 'untitled.blend'
# www.blender.org
mtllib boat.mtl
o Cube.001
v 105.229942 2.445153 -18.431702
v 106.189453 2.717285 -17.448549
v 106.243553 2.559362 -17.457642
v 105.284042 2.287231 -18.440794
v 102.927345 1.298776 -12.221689
v 102.981453 1.140852 -12.230781
v 101.705093 0.912502 -12.785775
v 101.759201 0.754578 -12.794868
v 96.620003 -0.620287 -16.401524
v 95.597809 -0.916386 -17.341383
v 95.652664 -1.076490 -17.350599
v 96.674850 -0.780393 -16.410740
v 98.859879 0.502144 -22.568783
v 98.914734 0.342039 -22.577999
v 100.065453 0.877809 -21.919674
v 100.120308 0.717703 -21.928890
vt 0.198211 0.344724
vt 0.745502 0.344724
vt 0.745502 0.278696
vt 0.198211 0.278696
vt 0.142926 0.679677
vt 0.853459 0.679677
vt 0.853459 0.661807
vt 0.142926 0.661807
vt 0.745502 0.344724
vt 0.198211 0.344724
vt 0.198211 0.278696
vt 0.745502 0.278696
vt 0.853459 0.679677
vt 0.142926 0.679677
vt 0.142926 0.661807
vt 0.853459 0.661807
vt 0.216936 0.796840
vt 0.216936 0.884696
vt 0.688018 0.884696
vt 0.688018 0.796840
vt 0.831606 0.398608
vt 0.831606 0.517215
vt 0.164779 0.517215
vt 0.164779 0.398608
vt 0.198211 0.344724
vt 0.745502 0.344724
vt 0.745502 0.278696
vt 0.198211 0.278696
vt 0.142926 0.679677
vt 0.853459 0.679677
vt 0.853459 0.661807
vt 0.142926 0.661807
vt 0.745502 0.344724
vt 0.198211 0.344724
vt 0.198211 0.278696
vt 0.745502 0.278696
vt 0.853459 0.679677
vt 0.142926 0.679677
vt 0.142926 0.661807
vt 0.853459 0.661807
vt 0.216936 0.796840
vt 0.216936 0.884696
vt 0.688018 0.884696
vt 0.688018 0.796840
vt 0.831606 0.398608
vt 0.831606 0.517215
vt 0.164779 0.517215
vt 0.164779 0.398608
vn 0.6526 0.2644 -0.7101
vn 0.7931 0.2395 0.5600
vn -0.3655 -0.1778 0.9137
vn -0.7930 -0.2395 -0.5601
vn 0.3236 -0.9446 -0.0544
vn -0.3236 0.9446 0.0544
vn -0.6140 -0.2534 0.7476
vn -0.7931 -0.2395 -0.5599
vn 0.4175 0.1941 -0.8877
vn 0.7930 0.2395 0.5602
usemtl Material.005
s off
f 1/1/1 2/2/1 3/3/1 4/4/1
f 2/5/2 5/6/2 6/7/2 3/8/2
f 5/9/3 7/10/3 8/11/3 6/12/3
f 7/13/4 1/14/4 4/15/4 8/16/4
f 4/17/5 3/18/5 6/19/5 8/20/5
f 7/21/6 5/22/6 2/23/6 1/24/6
f 9/25/7 10/26/7 11/27/7 12/28/7
f 10/29/8 13/30/8 14/31/8 11/32/8
f 13/33/9 15/34/9 16/35/9 14/36/9
f 15/37/10 9/38/10 12/39/10 16/40/10
f 12/41/5 11/42/5 14/43/5 16/44/5
f 15/45/6 13/46/6 10/47/6 9/48/6
o Cube
v 96.076263 -5.439529 -21.269230
v 93.776108 -4.388153 -18.892851
v 91.695068 -5.469971 -21.959370
v 92.127960 -5.808456 -24.314251
v 109.461113 1.888634 -10.827921
v 109.859421 5.954792 -10.442094
v 109.690323 5.947456 -10.220642
v 109.315292 1.884918 -10.638385
v 91.590942 -1.395164 -19.833580
v 89.179756 -2.705910 -23.397366
v 105.639595 0.303001 -11.378334
v 107.066666 -0.591949 -12.718618
v 102.062447 -0.943558 -12.430286
v 104.375290 -2.005814 -14.816958
v 99.007561 -2.150688 -14.175490
v 101.629852 -3.225494 -16.953094
v 96.240280 -3.291878 -16.326904
v 98.860260 -4.358391 -19.106125
v 105.355026 4.290337 -11.119205
v 101.242241 2.637230 -12.306065
v 97.682678 1.228996 -14.339522
v 94.458801 -0.104240 -16.845995
v 90.247353 -2.856796 -25.703575
v 94.286224 -5.404243 -25.327137
v 97.762939 -4.287010 -24.074604
v 109.606934 1.892311 -11.017447
v 110.030197 5.956074 -10.662376
v 92.199326 -2.629311 -27.321953
v 96.236954 -1.277306 -25.872074
v 107.978973 0.362335 -14.418861
v 106.068451 -0.841934 -17.636951
v 103.621201 -2.033653 -20.171911
v 100.853912 -3.174835 -22.323326
v 108.081192 4.359505 -14.662456
v 105.910583 2.755653 -18.373594
v 103.059128 1.365379 -21.327379
v 99.835251 0.032150 -23.833851
v 109.063126 1.801712 -10.906368
v 109.365540 5.782764 -10.567451
v 109.464996 5.777031 -10.749032
v 109.180138 1.814445 -11.045547
v 91.995987 -5.307739 -21.814640
v 89.589096 -2.538986 -23.197514
v 91.894669 -1.311333 -19.834545
v 93.978310 -4.277946 -18.904415
v 105.500351 0.237251 -11.617981
v 105.165894 4.156364 -11.455488
v 101.983208 -0.957794 -12.659992
v 101.153755 2.547600 -12.607641
v 99.038666 -2.115601 -14.341562
v 97.747162 1.205742 -14.556051
v 96.364693 -3.217407 -16.420174
v 94.653458 -0.071968 -16.960857
v 92.383675 -5.643547 -24.114285
v 90.640686 -2.675117 -25.397400
v 109.614853 5.789089 -10.891490
v 109.284866 1.807343 -11.194567
v 96.312340 -1.199257 -25.576256
v 92.494293 -2.465286 -26.973455
v 94.500198 -5.244217 -25.069412
v 97.801544 -4.180962 -23.873535
v 107.710236 4.220909 -14.762418
v 107.712921 0.293373 -14.493683
v 105.598152 2.660339 -18.384094
v 105.826416 -0.860298 -17.655071
v 102.866867 1.335609 -21.210213
v 103.468025 -2.003242 -20.098478
v 99.773567 0.057915 -23.615543
v 100.794289 -3.105034 -22.177391
v 93.246513 -5.272736 -23.443176
v 91.995987 -5.307739 -21.814640
v 93.978310 -4.277946 -18.904415
v 95.803284 -4.458847 -21.460125
v 106.793472 0.389481 -12.909656
v 105.500351 0.237251 -11.617981
v 109.063126 1.801712 -10.906368
v 109.180138 1.814445 -11.045547
v 104.102203 -1.024780 -15.007916
v 101.983208 -0.957794 -12.659992
v 101.356812 -2.244637 -17.144020
v 99.038666 -2.115601 -14.341562
v 98.587265 -3.377647 -19.297029
v 96.364693 -3.217407 -16.420174
v 97.801544 -4.180962 -23.873535
v 94.500198 -5.244217 -25.069412
v 109.284866 1.807343 -11.194567
v 107.712921 0.293373 -14.493683
v 105.826416 -0.860298 -17.655071
v 103.468025 -2.003242 -20.098478
v 100.794289 -3.105034 -22.177391
vt 0.293674 0.182356
vt 0.293674 0.087459
vt 0.204974 0.120679
vt 0.204974 0.182356
vt 0.953620 0.316924
vt 0.953620 0.438678
vt 0.941970 0.438678
vt 0.943623 0.316924
vt -0.092811 0.334035
vt -0.166038 0.545104
vt -0.424098 0.545104
vt -0.314257 0.334035
vt 0.737173 0.182356
vt 0.737173 0.175414
vt 0.648473 0.126672
vt 0.648473 0.182356
vt 0.559774 0.087002
vt 0.559774 0.182356
vt 0.471074 0.072539
vt 0.471074 0.182356
vt 0.382374 0.072539
vt 0.382374 0.182356
vt 1.014421 0.334035
vt 1.124261 0.545104
vt 0.866201 0.545104
vt 0.792975 0.334035
vt 0.608141 0.545104
vt 0.571528 0.334035
vt 0.350082 0.545104
vt 0.350082 0.334035
vt 0.092022 0.545104
vt 0.128636 0.334035
vt 1.074048 0.343621
vt 1.109922 0.641039
vt 0.857075 0.641039
vt 0.857075 0.343621
vt 0.293674 0.796789
vt 0.204974 0.796789
vt 0.204974 0.735112
vt 0.293674 0.701892
vt 0.963618 0.316924
vt 0.965271 0.438678
vt 0.001974 0.414336
vt -0.215379 0.414336
vt -0.323190 0.621503
vt -0.069900 0.621503
vt 0.737173 0.796789
vt 0.648473 0.796789
vt 0.648473 0.741105
vt 0.737173 0.789847
vt 0.559774 0.796789
vt 0.559774 0.701435
vt 0.471074 0.796789
vt 0.471074 0.686972
vt 0.382374 0.796789
vt 0.382374 0.686972
vt 1.088739 0.414336
vt 0.871386 0.414336
vt 0.943259 0.621503
vt 1.196548 0.621503
vt 0.654033 0.414336
vt 0.689969 0.621503
vt 0.436680 0.414336
vt 0.436680 0.621503
vt 0.219327 0.414336
vt 0.183390 0.621503
vt 0.640102 0.343621
vt 0.604228 0.641039
vt 0.943623 0.316924
vt 0.941970 0.438678
vt 0.953620 0.438678
vt 0.953620 0.316924
vt -0.314257 0.334035
vt -0.424098 0.545104
vt -0.166038 0.545104
vt -0.092811 0.334035
vt 0.792975 0.334035
vt 0.866201 0.545104
vt 1.124261 0.545104
vt 1.014421 0.334035
vt 0.571528 0.334035
vt 0.608141 0.545104
vt 0.350082 0.334035
vt 0.350082 0.545104
vt 0.128636 0.334035
vt 0.092022 0.545104
vt 0.857075 0.441597
vt 0.857075 0.543063
vt 0.943336 0.543063
vt 0.931097 0.441597
vt 0.965271 0.438678
vt 0.963618 0.316924
vt 0.006652 0.881113
vt -0.246638 0.881113
vt -0.138828 0.673945
vt 0.078525 0.673945
vt 1.273100 0.881113
vt 1.019810 0.881113
vt 0.947938 0.673945
vt 1.165291 0.673945
vt 0.766521 0.881113
vt 0.730585 0.673945
vt 0.513231 0.881113
vt 0.513231 0.673945
vt 0.259941 0.881113
vt 0.295878 0.673945
vt 0.770814 0.543063
vt 0.783053 0.441597
vt 1.052279 0.129218
vt 1.051290 0.150725
vt 1.017275 0.149037
vt 1.020123 0.133367
vt -0.579737 -0.118749
vt -0.302898 -0.207054
vt -0.287685 -0.192053
vt -0.550394 -0.110272
vt 0.781514 -0.033961
vt 0.756694 -0.023689
vt 0.512567 -0.167440
vt 0.494801 -0.154319
vt 0.243112 -0.225368
vt 0.236928 -0.209669
vt -0.028673 -0.239076
vt -0.023888 -0.222850
vt -0.589258 0.070249
vt -0.556105 0.071836
vt 1.050131 0.172249
vt 1.018548 0.164931
vt -0.331937 0.374680
vt -0.598608 0.259282
vt -0.568560 0.253635
vt -0.315303 0.361214
vt 0.764386 0.309151
vt 0.740712 0.296494
vt 0.483411 0.416659
vt 0.467040 0.401811
vt 0.209528 0.447427
vt 0.204941 0.431136
vt -0.062268 0.433925
vt -0.055888 0.418202
vt 1.618690 0.458003
vt 1.618602 0.970222
vt 1.237842 1.240017
vt 1.257380 0.458003
vt -0.344480 0.458003
vt -0.315739 0.910567
vt -0.704635 0.503358
vt -0.705790 0.458003
vt 0.055985 0.458003
vt 0.077427 1.244103
vt 0.456450 0.458003
vt 0.463189 1.363997
vt 0.856914 0.458003
vt 0.850103 1.364044
vt 1.237842 -0.324011
vt 1.618602 -0.054215
vt -0.704635 0.412648
vt -0.315739 0.005440
vt 0.077427 -0.328095
vt 0.463189 -0.447990
vt 0.850103 -0.448037
vn -0.0348 -0.9641 0.2631
vn 0.7883 -0.1344 0.6004
vn -0.7191 -0.3358 0.6084
vn 0.2116 -0.7341 0.6453
vn 0.0898 -0.8418 0.5322
vn 0.0771 -0.8931 0.4432
vn 0.0585 -0.9118 0.4065
vn 0.0221 -0.9172 0.3978
vn -0.1683 -0.0807 0.9824
vn -0.2488 -0.0852 0.9648
vn -0.4511 -0.1340 0.8824
vn -0.5567 -0.1790 0.8112
vn -0.6454 -0.2431 0.7241
vn -0.7389 -0.6521 -0.1694
vn 0.2636 -0.9566 -0.1246
vn 0.7850 -0.1344 0.6048
vn 0.4098 -0.3071 -0.8589
vn 0.6917 -0.7219 0.0213
vn 0.5532 -0.8301 -0.0701
vn 0.4649 -0.8833 -0.0609
vn 0.4250 -0.9025 -0.0699
vn 0.4074 -0.9074 -0.1030
vn 0.9077 -0.0534 -0.4161
vn 0.8702 -0.0568 -0.4895
vn 0.7395 -0.1038 -0.6651
vn 0.6445 -0.1485 -0.7501
vn 0.5389 -0.2131 -0.8150
vn -0.3409 -0.6420 -0.6867
vn -0.8253 0.1054 -0.5547
vn 0.7242 0.3208 -0.6104
vn 0.1765 0.0631 -0.9823
vn 0.2557 0.0680 -0.9644
vn 0.4563 0.1208 -0.8816
vn 0.5616 0.1661 -0.8106
vn 0.6508 0.2299 -0.7236
vn 0.7569 0.6293 0.1761
vn -0.7497 0.1073 -0.6530
vn -0.4102 0.2920 0.8640
vn -0.9052 0.0356 0.4236
vn -0.8676 0.0395 0.4957
vn -0.7372 0.0906 0.6696
vn -0.6424 0.1356 0.7543
vn -0.5367 0.1998 0.8198
vn 0.3524 0.6191 0.7018
vn -0.2814 0.9418 -0.1838
vn -0.2910 0.9452 -0.1482
vn -0.3242 0.9317 -0.1634
vn -0.3192 0.9291 -0.1868
vn -0.2624 0.9453 -0.1938
vn -0.2568 0.9505 -0.1750
vn -0.2594 0.9521 -0.1620
vn -0.2853 0.9386 -0.1940
vn -0.2675 0.9422 -0.2018
vn -0.2357 0.9466 -0.2202
vn -0.2587 0.9334 -0.2487
vn -0.2799 0.9301 -0.2379
vn -0.2724 0.9450 -0.1808
vn -0.2529 0.9506 -0.1801
vn -0.2410 0.9526 -0.1859
vn -0.2783 0.9388 -0.2031
vn -0.1982 0.9636 -0.1793
vn -0.3504 0.9051 -0.2410
vn -0.2735 0.9329 -0.2345
vn -0.2344 0.9426 -0.2378
vn -0.2174 0.9504 -0.2222
vn -0.2047 0.9555 -0.2125
vn -0.2422 0.9625 -0.1220
vn -0.3398 0.9053 -0.2548
vn -0.3144 0.9318 -0.1813
vn -0.3077 0.9408 -0.1425
vn -0.2885 0.9486 -0.1299
vn -0.2759 0.9537 -0.1200
usemtl Material.002
s off
f 17/49/11 18/50/11 19/51/11 20/52/11
f 21/53/12 22/54/12 23/55/12 24/56/12
f 18/57/13 25/58/13 26/59/13 19/60/13
f 21/61/14 24/62/14 27/63/14 28/64/14
f 28/64/15 27/63/15 29/65/15 30/66/15
f 30/66/16 29/65/16 31/67/16 32/68/16
f 32/68/17 31/67/17 33/69/17 34/70/17
f 34/70/18 33/69/18 18/50/18 17/49/18
f 24/71/19 23/72/19 35/73/19 27/74/19
f 27/74/20 35/73/20 36/75/20 29/76/20
f 29/76/21 36/75/21 37/77/21 31/78/21
f 31/78/22 37/77/22 38/79/22 33/80/22
f 33/80/23 38/79/23 25/58/23 18/57/23
f 19/81/24 26/82/24 39/83/24 20/84/24
f 17/85/25 20/86/25 40/87/25 41/88/25
f 21/53/26 42/89/26 43/90/26 22/54/26
f 41/91/27 40/92/27 44/93/27 45/94/27
f 21/95/28 28/96/28 46/97/28 42/98/28
f 28/96/29 30/99/29 47/100/29 46/97/29
f 30/99/30 32/101/30 48/102/30 47/100/30
f 32/101/31 34/103/31 49/104/31 48/102/31
f 34/103/32 17/85/32 41/88/32 49/104/32
f 42/105/33 46/106/33 50/107/33 43/108/33
f 46/106/34 47/109/34 51/110/34 50/107/34
f 47/109/35 48/111/35 52/112/35 51/110/35
f 48/111/36 49/113/36 53/114/36 52/112/36
f 49/113/37 41/91/37 45/94/37 53/114/37
f 40/115/38 20/84/38 39/83/38 44/116/38
f 54/117/39 55/118/39 56/119/39 57/120/39
f 58/121/40 59/122/40 60/123/40 61/124/40
f 62/125/41 63/126/41 55/127/41 54/128/41
f 64/129/42 65/130/42 63/126/42 62/125/42
f 66/131/43 67/132/43 65/130/43 64/129/43
f 68/133/44 69/134/44 67/132/44 66/131/44
f 61/124/45 60/123/45 69/134/45 68/133/45
f 70/135/46 71/136/46 59/137/46 58/138/46
f 56/119/47 72/139/47 73/140/47 57/120/47
f 74/141/48 75/142/48 76/143/48 77/144/48
f 72/145/49 78/146/49 79/147/49 73/148/49
f 78/146/50 80/149/50 81/150/50 79/147/50
f 80/149/51 82/151/51 83/152/51 81/150/51
f 82/151/52 84/153/52 85/154/52 83/152/52
f 84/153/53 74/141/53 77/144/53 85/154/53
f 75/155/54 71/136/54 70/135/54 76/156/54
f 23/157/55 22/158/55 56/159/55 55/160/55
f 26/161/56 25/162/56 60/163/56 59/164/56
f 35/165/57 23/157/57 55/160/57 63/166/57
f 36/167/58 35/165/58 63/166/58 65/168/58
f 37/169/59 36/167/59 65/168/59 67/170/59
f 38/171/60 37/169/60 67/170/60 69/172/60
f 25/162/61 38/171/61 69/172/61 60/163/61
f 39/173/62 26/161/62 59/164/62 71/174/62
f 22/158/63 43/175/63 72/176/63 56/159/63
f 45/177/64 44/178/64 75/179/64 74/180/64
f 43/175/65 50/181/65 78/182/65 72/176/65
f 50/181/66 51/183/66 80/184/66 78/182/66
f 51/183/67 52/185/67 82/186/67 80/184/67
f 52/185/68 53/187/68 84/188/68 82/186/68
f 53/187/69 45/177/69 74/180/69 84/188/69
f 44/178/70 39/173/70 71/174/70 75/179/70
usemtl Material.004
f 86/189/71 87/190/71 88/191/71 89/192/71
f 90/193/72 91/194/72 92/195/72 93/196/72
f 94/197/73 95/198/73 91/194/73 90/193/73
f 96/199/74 97/200/74 95/198/74 94/197/74
f 98/201/75 99/202/75 97/200/75 96/199/75
f 89/192/76 88/191/76 99/202/76 98/201/76
f 100/203/77 101/204/77 86/189/77 89/192/77
f 102/205/78 103/206/78 90/193/78 93/196/78
f 103/206/79 104/207/79 94/197/79 90/193/79
f 104/207/80 105/208/80 96/199/80 94/197/80
f 105/208/81 106/209/81 98/201/81 96/199/81
f 106/209/82 100/203/82 89/192/82 98/201/82
